<svg width="18" height="19" viewBox="0 0 18 19" fill="none" xmlns="http://www.w3.org/2000/svg">
<path d="M0.111329 3.08513C0.111329 2.51802 0.331607 1.97414 0.723703 1.57313C1.1158 1.17212 1.6476 0.946838 2.2021 0.946838H12.4659C13.0204 0.946838 13.5522 1.17212 13.9443 1.57313C14.3364 1.97414 14.5567 2.51802 14.5567 3.08513V4.0633C15.2784 4.11262 15.9547 4.44061 16.4488 4.98086C16.9429 5.5211 17.2177 6.23321 17.2177 6.97293V15.1373C17.2177 15.9107 16.9173 16.6523 16.3826 17.1991C15.8479 17.746 15.1228 18.0532 14.3666 18.0532H2.96543C2.20928 18.0532 1.4841 17.746 0.949425 17.1991C0.414749 16.6523 0.11437 15.9107 0.11437 15.1373V6.97293H0.111329V3.27952H0.119692C0.114058 3.21488 0.111268 3.15002 0.111329 3.08513ZM13.4163 3.08513C13.4163 2.54861 12.9905 2.11318 12.4659 2.11318H2.2021C1.95005 2.11318 1.70833 2.21558 1.5301 2.39786C1.35188 2.58013 1.25175 2.82735 1.25175 3.08513C1.25175 3.34291 1.35188 3.59013 1.5301 3.7724C1.70833 3.95468 1.95005 4.05708 2.2021 4.05708H13.4163V3.08513ZM12.0858 11.0551C11.9345 11.0551 11.7895 11.1166 11.6826 11.2259C11.5756 11.3353 11.5156 11.4836 11.5156 11.6383C11.5156 11.793 11.5756 11.9413 11.6826 12.0507C11.7895 12.16 11.9345 12.2215 12.0858 12.2215H13.9865C14.1377 12.2215 14.2827 12.16 14.3897 12.0507C14.4966 11.9413 14.5567 11.793 14.5567 11.6383C14.5567 11.4836 14.4966 11.3353 14.3897 11.2259C14.2827 11.1166 14.1377 11.0551 13.9865 11.0551H12.0858Z" fill="white"/>
</svg>
